<?xml version="1.0" standalone="no"?>
<!DOCTYPE svg PUBLIC "-//W3C//DTD SVG 20010904//EN"
 "http://www.w3.org/TR/2001/REC-SVG-20010904/DTD/svg10.dtd">
<svg version="1.0" xmlns="http://www.w3.org/2000/svg"
 width="500.000000pt" height="500.000000pt" viewBox="0 0 500.000000 500.000000"
 preserveAspectRatio="xMidYMid meet">
<metadata>
Created by potrace 1.14, written by Peter Selinger 2001-2017
</metadata>
<g transform="translate(0.000000,500.000000) scale(0.100000,-0.100000)"
fill="#000000" stroke="none">
<path d="M2023 3136 c-34 -15 -59 -48 -208 -266 -54 -80 -124 -181 -154 -225
-156 -225 -280 -406 -313 -455 -21 -30 -71 -104 -113 -165 -41 -60 -75 -120
-75 -132 0 -23 2 -23 133 -23 l133 0 90 133 c50 72 166 245 259 382 272 403
290 427 300 427 6 0 51 -60 101 -133 49 -74 116 -172 148 -219 l58 -85 -216
-3 -216 -2 -60 -90 -61 -90 340 0 339 0 70 -102 c38 -57 87 -129 108 -160 l39
-57 558 -1 557 0 0 140 0 140 -497 0 -498 1 -45 67 c-24 37 -61 90 -82 119
-21 29 -38 55 -38 57 0 3 244 7 543 8 l542 3 0 130 0 130 -640 3 -640 3 -33
52 c-18 28 -48 72 -67 97 -19 25 -34 48 -34 53 -1 4 334 7 744 7 l745 0 0 135
0 135 -892 0 c-734 -1 -899 -3 -925 -14z"/>
</g>
</svg>
