
        <svg xmlns="http://www.w3.org/2000/svg" xmlns:xlink="http://www.w3.org/1999/xlink" version="1.1" width="3300" height="671.6204640475737" viewBox="0 0 3300 671.6204640475737">
			
			<g transform="scale(15) translate(10, 10)">
				<defs id="SvgjsDefs4093"/><g id="SvgjsG4094" featureKey="ewgXDI-0" transform="matrix(1.767096655422556,0,0,1.767096655422556,-8.426173474419384e-7,-10.567235505279536)" fill="#000"><path d="M9.88 15.32 l0.9 -1.56 l2.72 4.68 l1.8 0 c-0.4 -0.64 -4.2 -7.14 -4.52 -7.78 l-3.92 6.8 l-1.46 2.54 l-5.4 0 c0.3 -0.5 2.32 -4.02 4.26 -7.4 c1.14 -1.98 2.4 -4.2 3.82 -6.62 l1.8 0 l-3.72 6.44 l-3.46 6.02 l1.8 0 c2.46 -4.34 4 -6.9 6.28 -10.9 c0.14 0.24 7.18 12.44 7.22 12.46 l-5.4 0 z M36.1 5.98 l0 4.68 l-10.62 0 l0 1.56 l7.88 0 l0 1.56 l-9.44 0 l0 -4.68 l10.62 0 l0 -1.56 l-12.18 0 l0 10.9 l12.18 0 l0 -1.56 l-10.62 0 l0 -1.56 l12.18 0 l0 4.68 l-15.3 0 l0 -14.02 l15.3 0 z M51.50000000000001 5.98 l5.4 0 c-0.3 0.5 -2.32 4.02 -4.26 7.4 c-1.14 1.98 -2.4 4.2 -3.82 6.62 l-1.8 0 c0.16 -0.26 1.94 -3.4 3.7 -6.44 c1.02 -1.78 2.18 -3.8 3.48 -6.02 l-1.8 0 c-2.52 4.32 -3.98 6.9 -6.28 10.9 c-0.14 -0.24 -7.24 -12.44 -7.22 -12.46 l5.4 0 l2.72 4.68 l-0.9 1.56 l-2.72 -4.68 l-1.8 0 c0.4 0.64 4.14 7.16 4.52 7.78 l3.92 -6.8 z M74.2 5.98 l0 4.68 l-10.62 0 l0 1.56 l7.88 0 l0 1.56 l-9.44 0 l0 -4.68 l10.62 0 l0 -1.56 l-12.18 0 l0 10.9 l12.18 0 l0 -1.56 l-10.62 0 l0 -1.56 l12.18 0 l0 4.68 l-15.3 0 l0 -14.02 l15.3 0 z M86.88 15.32 l0.9 -1.56 l2.72 4.68 l1.8 0 c-0.4 -0.64 -4.2 -7.14 -4.52 -7.78 l-3.92 6.8 l-1.46 2.54 l-5.4 0 c0.3 -0.5 2.32 -4.02 4.26 -7.4 c1.14 -1.98 2.4 -4.2 3.82 -6.62 l1.8 0 l-3.72 6.44 l-3.46 6.02 l1.8 0 c2.46 -4.34 4 -6.9 6.28 -10.9 c0.14 0.24 7.18 12.44 7.22 12.46 l-5.4 0 z M113.17999999999999 20 l-5.4 0 l-1.82 -3.14 l-3.5 0 l0 3.14 l-4.66 0 l0 -7.8 l11.44 0.02 c1.3 0 2.34 -1.06 2.34 -2.34 c0 -1.3 -1.04 -2.34 -2.34 -2.34 l-9.88 0 l0 1.56 l9.88 0 c0.42 0.02 0.74 0.36 0.74 0.78 s-0.32 0.76 -0.74 0.78 l-0.02 0 l-0.02 0 l-11.4 0 l0 -4.68 l11.44 0 c2.16 0 3.9 1.74 3.9 3.9 c0 2.14 -1.74 3.9 -3.9 3.9 l-9.88 -0.02 l0 4.68 l1.56 0 l0 -3.14 l5.94 0 c0.64 1.16 1.72 2.94 1.82 3.14 l1.8 0 c-0.16 -0.22 -1.08 -1.86 -1.82 -3.14 l1.8 0 c0.66 1.14 1.32 2.32 1.86 3.2 z"/></g>
			</g>
		</svg>
	